<svg data-v-5888b1d7="" width="15" height="12" viewBox="0 0 15 12" fill="none" xmlns="http://www.w3.org/2000/svg" class="up-icon"><path data-v-5888b1d7="" fill-rule="evenodd" clip-rule="evenodd" d="M7.66699 1.25C5.95349 1.25 4.45886 1.338 3.40887 1.42384C2.68988 1.48262 2.13238 2.03254 2.06794 2.74577C1.99009 3.60739 1.91699 4.74982 1.91699 6C1.91699 7.25018 1.99009 8.39261 2.06794 9.25423C2.13238 9.96746 2.68988 10.5174 3.40887 10.5762C4.45886 10.662 5.95349 10.75 7.66699 10.75C9.38066 10.75 10.8754 10.662 11.9254 10.5761C12.6443 10.5174 13.2017 9.96761 13.2661 9.25456C13.3439 8.39331 13.417 7.25109 13.417 6C13.417 4.74891 13.3439 3.60669 13.2661 2.74544C13.2017 2.03239 12.6443 1.48264 11.9254 1.42386C10.8754 1.33802 9.38066 1.25 7.66699 1.25ZM3.32739 0.427162C4.39787 0.339649 5.92038 0.25 7.66699 0.25C9.41377 0.25 10.9364 0.339666 12.0069 0.427188C13.2052 0.525159 14.1534 1.4527 14.2621 2.65545C14.3418 3.53837 14.417 4.71159 14.417 6C14.417 7.28841 14.3418 8.46163 14.2621 9.34455C14.1534 10.5473 13.2052 11.4748 12.0069 11.5728C10.9364 11.6603 9.41377 11.75 7.66699 11.75C5.92038 11.75 4.39787 11.6604 3.32739 11.5728C2.12889 11.4749 1.18068 10.5471 1.072 9.34421C0.992196 8.46097 0.916992 7.28754 0.916992 6C0.916992 4.71246 0.992196 3.53903 1.072 2.65579C1.18068 1.45293 2.12889 0.525142 3.32739 0.427162ZM4.00029 3.5498C4.24882 3.5498 4.45029 3.75128 4.45029 3.9998V6.4998C4.45029 7.0797 4.92039 7.5498 5.50029 7.5498C6.08019 7.5498 6.55029 7.0797 6.55029 6.4998V3.9998C6.55029 3.75128 6.75177 3.5498 7.00029 3.5498C7.24882 3.5498 7.45029 3.75128 7.45029 3.9998V6.4998C7.45029 7.57676 6.57725 8.4498 5.50029 8.4498C4.42334 8.4498 3.55029 7.57676 3.55029 6.4998V3.9998C3.55029 3.75128 3.75176 3.5498 4.00029 3.5498ZM8.66704 3.5498C8.41851 3.5498 8.21704 3.75128 8.21704 3.9998V7.9998C8.21704 8.24833 8.41851 8.4498 8.66704 8.4498C8.91557 8.4498 9.11704 8.24833 9.11704 7.9998V7.28314H10.2504C11.2813 7.28314 12.117 6.4474 12.117 5.41647C12.117 4.38554 11.2813 3.5498 10.2504 3.5498H8.66704ZM10.2504 6.38314H9.11704V4.4498H10.2504C10.7843 4.4498 11.217 4.8826 11.217 5.41647C11.217 5.95035 10.7842 6.38314 10.2504 6.38314Z" fill="#9499A0"></path></svg>